<?xml version="1.0" encoding="iso-8859-1"?>
<!-- Generator: Adobe Illustrator 16.0.0, SVG Export Plug-In . SVG Version: 6.00 Build 0)  -->
<!DOCTYPE svg PUBLIC "-//W3C//DTD SVG 1.1//EN" "http://www.w3.org/Graphics/SVG/1.1/DTD/svg11.dtd">
<svg version="1.1" id="Capa_1" xmlns="http://www.w3.org/2000/svg" xmlns:xlink="http://www.w3.org/1999/xlink" x="0px" y="0px"
	 width="984.998px" height="984.998px" viewBox="0 0 984.998 984.998" style="enable-background:new 0 0 984.998 984.998;"
	 xml:space="preserve">
<g>
	<g>
		<path d="M967.5,131.055h-950c-9.665,0-17.5,7.835-17.5,17.5v687.887c0,0.162,0.02,0.318,0.024,0.48
			c0.01,0.369,0.023,0.738,0.055,1.1c0.021,0.232,0.055,0.463,0.085,0.695c0.043,0.334,0.09,0.67,0.153,1
			c0.049,0.258,0.11,0.514,0.171,0.77c0.07,0.295,0.141,0.588,0.226,0.877c0.083,0.283,0.18,0.564,0.278,0.844
			c0.089,0.254,0.177,0.51,0.277,0.758c0.123,0.307,0.262,0.607,0.404,0.906c0.102,0.217,0.201,0.436,0.312,0.648
			c0.165,0.316,0.349,0.625,0.535,0.936c0.086,0.143,0.157,0.291,0.248,0.434c0.042,0.064,0.088,0.125,0.131,0.189
			c0.077,0.119,0.158,0.232,0.238,0.346c0.244,0.352,0.498,0.693,0.766,1.023c0.044,0.055,0.086,0.113,0.131,0.168
			c0.332,0.398,0.681,0.783,1.046,1.15c0.041,0.043,0.083,0.08,0.124,0.121c0.368,0.363,0.748,0.711,1.146,1.041
			c0.009,0.008,0.017,0.016,0.025,0.023c0.406,0.334,0.831,0.648,1.267,0.947c0.062,0.043,0.126,0.082,0.19,0.125
			c0.399,0.266,0.81,0.516,1.232,0.748c0.042,0.023,0.084,0.051,0.126,0.072c0.421,0.229,0.856,0.434,1.297,0.625
			c0.14,0.062,0.281,0.121,0.422,0.18c0.42,0.17,0.846,0.33,1.281,0.469c0.125,0.039,0.253,0.072,0.379,0.109
			c0.37,0.107,0.745,0.203,1.124,0.287c0.148,0.033,0.296,0.068,0.445,0.098c0.472,0.092,0.95,0.166,1.435,0.219
			c0.109,0.012,0.22,0.021,0.33,0.031c0.536,0.049,1.073,0.082,1.612,0.082c0.539,0,1.078-0.033,1.617-0.084
			c0.111-0.01,0.222-0.021,0.332-0.035c0.485-0.053,0.965-0.125,1.437-0.219c0.054-0.012,0.107-0.018,0.161-0.027
			c0.507-0.105,1.005-0.238,1.496-0.385c0.138-0.043,0.276-0.09,0.414-0.137c0.354-0.117,0.703-0.244,1.047-0.383
			c0.156-0.062,0.313-0.125,0.468-0.191c0.407-0.178,0.806-0.369,1.195-0.576c0.114-0.061,0.227-0.123,0.34-0.188
			c0.311-0.174,0.62-0.35,0.924-0.545l105.705-67.791c2.058-1.32,3.744-3,5.034-4.902h709.629c1.299,1.916,2.996,3.604,5.072,4.928
			l104.604,66.689c2.914,1.859,6.17,2.746,9.391,2.746c4.865,0,9.643-2.035,13.021-5.803c3.434-3.195,5.596-7.74,5.596-12.801
			V148.555C985,138.89,977.164,131.055,967.5,131.055z M114.402,753.551c-0.214,0.125-0.434,0.234-0.645,0.369l-78.758,50.508
			V189.395l76.103,72.86c1.019,0.976,2.133,1.785,3.3,2.466V753.551z M188.352,744.357h-39.829v-25.561l37.303-37.303l32.694,32.695
			L188.352,744.357z M235.348,322.737l32.694,32.694l-32.694,32.694l-32.694-32.694L235.348,322.737z M224.212,273.909h22.273
			l-11.137,11.137L224.212,273.909z M338.427,322.737l32.693,32.694l-32.693,32.694l-32.694-32.694L338.427,322.737z
			 M327.291,273.909h22.273l-11.137,11.137L327.291,273.909z M441.506,322.737l32.693,32.694l-32.693,32.694l-32.694-32.694
			L441.506,322.737z M430.37,273.909h22.273l-11.137,11.137L430.37,273.909z M544.586,322.737l32.693,32.694l-32.693,32.694
			l-32.693-32.694L544.586,322.737z M533.449,273.909h22.273l-11.139,11.137L533.449,273.909z M647.664,322.737l32.695,32.694
			l-32.695,32.694l-32.693-32.694L647.664,322.737z M636.527,273.909h22.273l-11.137,11.137L636.527,273.909z M750.744,322.737
			l32.693,32.694l-32.693,32.694l-32.693-32.694L750.744,322.737z M739.607,273.909h22.273l-11.139,11.137L739.607,273.909z
			 M254.193,510.049l32.694-32.694l32.694,32.694l-32.694,32.693L254.193,510.049z M268.042,561.588l-32.694,32.695l-32.694-32.695
			l32.694-32.693L268.042,561.588z M338.427,528.895l32.693,32.693l-32.693,32.695l-32.694-32.695L338.427,528.895z
			 M357.273,510.049l32.694-32.694l32.693,32.694l-32.693,32.693L357.273,510.049z M441.506,528.895l32.693,32.693l-32.693,32.695
			l-32.694-32.695L441.506,528.895z M460.352,510.049l32.693-32.694l32.695,32.694l-32.695,32.693L460.352,510.049z
			 M544.584,528.895l32.695,32.693l-32.695,32.695l-32.693-32.695L544.584,528.895z M563.432,510.049l32.693-32.694l32.693,32.694
			l-32.693,32.693L563.432,510.049z M647.664,528.895l32.693,32.693l-32.693,32.695l-32.693-32.695L647.664,528.895z
			 M666.51,510.049l32.693-32.694l32.695,32.694l-32.695,32.693L666.51,510.049z M750.742,528.895l32.695,32.693l-32.695,32.695
			l-32.693-32.695L750.742,528.895z M718.049,458.509l32.693-32.692l32.693,32.692l-32.693,32.694L718.049,458.509z
			 M699.203,439.664l-32.691-32.693l32.693-32.694l32.693,32.694L699.203,439.664z M680.357,458.509l-32.693,32.694l-32.693-32.694
			l32.693-32.692L680.357,458.509z M596.125,439.664l-32.693-32.693l32.693-32.694l32.695,32.694L596.125,439.664z M577.279,458.509
			l-32.695,32.694l-32.693-32.694l32.693-32.692L577.279,458.509z M493.045,439.664l-32.693-32.693l32.694-32.694l32.694,32.694
			L493.045,439.664z M474.2,458.509l-32.693,32.694l-32.694-32.694l32.694-32.692L474.2,458.509z M389.966,439.664l-32.693-32.693
			l32.694-32.694l32.693,32.694L389.966,439.664z M371.121,458.509l-32.693,32.694l-32.694-32.694l32.694-32.692L371.121,458.509z
			 M286.887,439.664l-32.693-32.693l32.694-32.694l32.694,32.694L286.887,439.664z M268.042,458.509l-32.694,32.694l-32.694-32.694
			l32.694-32.692L268.042,458.509z M183.808,439.664l-32.693-32.693l32.694-32.694l32.694,32.694L183.808,439.664z M216.502,510.049
			l-32.694,32.693l-32.694-32.693l32.694-32.694L216.502,510.049z M216.502,613.127l-30.676,30.676l-32.694-32.693l30.676-30.676
			L216.502,613.127z M235.348,631.973l32.694,32.695l-30.676,30.676l-32.694-32.693L235.348,631.973z M254.193,613.127
			l32.694-32.693l32.694,32.693l-32.694,32.695L254.193,613.127z M338.427,631.973l32.693,32.695l-32.693,32.693l-32.694-32.693
			L338.427,631.973z M357.273,613.127l32.694-32.693l32.693,32.693l-32.693,32.695L357.273,613.127z M441.506,631.973l32.693,32.695
			l-32.693,32.693l-32.694-32.693L441.506,631.973z M460.352,613.127l32.693-32.693l32.695,32.693l-32.695,32.695L460.352,613.127z
			 M544.584,631.973l32.695,32.695l-32.695,32.693l-32.693-32.693L544.584,631.973z M563.432,613.127l32.693-32.693l32.693,32.693
			l-32.693,32.695L563.432,613.127z M647.664,631.973l32.693,32.695l-32.693,32.693l-32.693-32.693L647.664,631.973z
			 M666.51,613.127l32.693-32.693l32.695,32.693l-32.695,32.695L666.51,613.127z M750.742,631.973l30.676,30.678l-32.693,32.693
			l-30.676-30.676L750.742,631.973z M769.59,613.127l32.693-32.693l30.676,30.676l-32.693,32.693L769.59,613.127z M769.59,510.049
			l32.693-32.694l32.693,32.694l-32.693,32.693L769.59,510.049z M769.59,406.97l32.693-32.694l32.693,32.694l-32.693,32.693
			L769.59,406.97z M699.203,336.584l-32.693-32.694l29.982-29.982h5.422l29.982,29.982L699.203,336.584z M596.125,336.584
			l-32.693-32.694l29.98-29.982h5.424l29.982,29.982L596.125,336.584z M493.045,336.584l-32.693-32.694l29.981-29.982h5.424
			l29.98,29.982L493.045,336.584z M389.967,336.584l-32.694-32.694l29.982-29.982h5.423l29.981,29.982L389.967,336.584z
			 M286.888,336.584l-32.694-32.694l29.982-29.982h5.423l29.981,29.982L286.888,336.584z M183.809,336.584l-35.286-35.286v-27.391
			h37.997l29.982,29.982L183.809,336.584z M164.963,355.431l-16.44,16.439v-32.879L164.963,355.431z M164.962,458.509l-16.439,16.44
			v-32.879L164.962,458.509z M164.962,561.588l-16.439,16.441V545.15L164.962,561.588z M166.98,662.65l-18.457,18.457v-36.914
			L166.98,662.65z M226.044,744.357l11.322-11.322l11.322,11.322H226.044z M291.431,744.357h-5.053l-30.167-30.168l30.676-30.676
			l32.694,32.693L291.431,744.357z M329.123,744.357l9.305-9.305l9.304,9.305H329.123z M394.51,744.357h-9.088l-28.15-28.15
			l32.694-32.695l32.693,32.695L394.51,744.357z M432.202,744.357l9.305-9.305l9.304,9.305H432.202z M497.59,744.357H488.5
			l-28.149-28.15l32.693-32.695l32.694,32.695L497.59,744.357z M535.281,744.357l9.303-9.305l9.305,9.305H535.281z M600.668,744.357
			h-9.088l-28.148-28.15l32.693-32.695l32.693,32.695L600.668,744.357z M638.359,744.357l9.305-9.305l9.305,9.305H638.359z
			 M699.711,744.357h-5.053l-28.148-28.15l32.693-32.695l30.676,30.678L699.711,744.357z M737.404,744.357l11.322-11.322
			l11.322,11.322H737.404z M836.477,744.357h-38.738l-30.166-30.168l32.693-32.693l36.211,36.211V744.357L836.477,744.357z
			 M836.477,680.016l-17.365-17.365l17.365-17.365V680.016z M836.477,576.936l-15.35-15.348l15.35-15.348V576.936z M836.477,473.857
			l-15.35-15.349l15.35-15.347V473.857z M836.477,370.777l-15.348-15.347l15.348-15.348V370.777z M836.477,302.393l-34.193,34.192
			l-32.695-32.694l29.982-29.982h36.904v28.484H836.477z M849.852,236.825c-0.975,0.908-1.807,1.907-2.523,2.963H137.682
			c-0.679-0.999-1.467-1.944-2.375-2.813l-74.076-70.92h864.404L849.852,236.825z M950,804.131l-78.797-50.234
			c-0.197-0.127-0.404-0.229-0.605-0.346V264.726c1.107-0.646,2.166-1.409,3.143-2.32L950,191.189V804.131L950,804.131z"/>
	</g>
</g>
<g>
</g>
<g>
</g>
<g>
</g>
<g>
</g>
<g>
</g>
<g>
</g>
<g>
</g>
<g>
</g>
<g>
</g>
<g>
</g>
<g>
</g>
<g>
</g>
<g>
</g>
<g>
</g>
<g>
</g>
</svg>
